<mxfile host="app.diagrams.net" agent="Mozilla/5.0 (Windows NT 10.0; Win64; x64; rv:140.0) Gecko/20100101 Firefox/140.0" version="28.2.5">
  <diagram name="Page-1" id="yGEbEjSQ9hln3Bx4inEz">
    <mxGraphModel dx="1679" dy="961" grid="1" gridSize="10" guides="1" tooltips="1" connect="1" arrows="1" fold="1" page="1" pageScale="1" pageWidth="850" pageHeight="1100" math="0" shadow="0">
      <root>
        <mxCell id="0" />
        <mxCell id="1" parent="0" />
        <mxCell id="zkAmmM7Bx4LIPEx-Aipj-1" value="" style="rounded=0;whiteSpace=wrap;html=1;fillColor=none;" vertex="1" parent="1">
          <mxGeometry x="40" y="40" width="450" height="320" as="geometry" />
        </mxCell>
        <mxCell id="zkAmmM7Bx4LIPEx-Aipj-3" value="&lt;div&gt;&lt;font style=&quot;font-size: 14px;&quot;&gt;&lt;b&gt;Postgres Cluster&lt;/b&gt;&lt;/font&gt;&lt;/div&gt;&lt;div&gt;Logical Architecture of a PostgreSQL Cluster&lt;/div&gt;" style="rounded=0;whiteSpace=wrap;html=1;fillColor=#cce5ff;strokeColor=#36393d;" vertex="1" parent="1">
          <mxGeometry x="40" y="40" width="450" height="50" as="geometry" />
        </mxCell>
        <mxCell id="zkAmmM7Bx4LIPEx-Aipj-6" value="&lt;div&gt;&lt;font style=&quot;font-size: 14px;&quot;&gt;&lt;b&gt;Database Users&lt;/b&gt;&lt;/font&gt;&lt;/div&gt;&lt;div&gt;Users with role-based access control to specific databases&lt;/div&gt;" style="rounded=0;whiteSpace=wrap;html=1;" vertex="1" parent="1">
          <mxGeometry x="50" y="100" width="430" height="60" as="geometry" />
        </mxCell>
        <mxCell id="zkAmmM7Bx4LIPEx-Aipj-9" value="&lt;div&gt;&lt;font style=&quot;font-size: 14px;&quot;&gt;&lt;b&gt;Database A&lt;/b&gt;&lt;/font&gt;&lt;/div&gt;" style="rounded=0;whiteSpace=wrap;html=1;" vertex="1" parent="1">
          <mxGeometry x="50" y="200" width="90" height="40" as="geometry" />
        </mxCell>
        <mxCell id="zkAmmM7Bx4LIPEx-Aipj-26" value="&lt;div&gt;&lt;font style=&quot;font-size: 14px;&quot;&gt;&lt;b&gt;Database B&lt;/b&gt;&lt;/font&gt;&lt;/div&gt;" style="rounded=0;whiteSpace=wrap;html=1;" vertex="1" parent="1">
          <mxGeometry x="160" y="200" width="90" height="40" as="geometry" />
        </mxCell>
        <mxCell id="zkAmmM7Bx4LIPEx-Aipj-27" value="..." style="rounded=0;whiteSpace=wrap;html=1;" vertex="1" parent="1">
          <mxGeometry x="280" y="200" width="90" height="40" as="geometry" />
        </mxCell>
        <mxCell id="zkAmmM7Bx4LIPEx-Aipj-28" value="&lt;div&gt;&lt;font style=&quot;font-size: 14px;&quot;&gt;&lt;b&gt;Database Z&lt;/b&gt;&lt;/font&gt;&lt;/div&gt;" style="rounded=0;whiteSpace=wrap;html=1;" vertex="1" parent="1">
          <mxGeometry x="390" y="200" width="90" height="40" as="geometry" />
        </mxCell>
        <mxCell id="zkAmmM7Bx4LIPEx-Aipj-48" style="edgeStyle=orthogonalEdgeStyle;rounded=0;orthogonalLoop=1;jettySize=auto;html=1;exitX=0.5;exitY=0;exitDx=0;exitDy=0;dashed=1;endArrow=none;endFill=0;" edge="1" parent="1" source="zkAmmM7Bx4LIPEx-Aipj-46" target="zkAmmM7Bx4LIPEx-Aipj-26">
          <mxGeometry relative="1" as="geometry" />
        </mxCell>
        <mxCell id="zkAmmM7Bx4LIPEx-Aipj-46" value="" style="rounded=0;whiteSpace=wrap;html=1;" vertex="1" parent="1">
          <mxGeometry x="80" y="280" width="370" height="60" as="geometry" />
        </mxCell>
        <mxCell id="zkAmmM7Bx4LIPEx-Aipj-51" value="&lt;div&gt;&lt;font style=&quot;font-size: 14px;&quot;&gt;&lt;b&gt;Schema 1&lt;/b&gt;&lt;/font&gt;&lt;/div&gt;" style="rounded=0;whiteSpace=wrap;html=1;" vertex="1" parent="1">
          <mxGeometry x="90" y="290" width="80" height="40" as="geometry" />
        </mxCell>
        <mxCell id="zkAmmM7Bx4LIPEx-Aipj-55" value="&lt;div&gt;&lt;font style=&quot;font-size: 14px;&quot;&gt;&lt;b&gt;Schema 2&lt;/b&gt;&lt;/font&gt;&lt;/div&gt;" style="rounded=0;whiteSpace=wrap;html=1;" vertex="1" parent="1">
          <mxGeometry x="180" y="290" width="80" height="40" as="geometry" />
        </mxCell>
        <mxCell id="zkAmmM7Bx4LIPEx-Aipj-56" value="..." style="rounded=0;whiteSpace=wrap;html=1;" vertex="1" parent="1">
          <mxGeometry x="270" y="290" width="80" height="40" as="geometry" />
        </mxCell>
        <mxCell id="zkAmmM7Bx4LIPEx-Aipj-57" value="&lt;div&gt;&lt;font style=&quot;font-size: 14px;&quot;&gt;&lt;b&gt;Schema 9&lt;/b&gt;&lt;/font&gt;&lt;/div&gt;" style="rounded=0;whiteSpace=wrap;html=1;" vertex="1" parent="1">
          <mxGeometry x="360" y="290" width="80" height="40" as="geometry" />
        </mxCell>
      </root>
    </mxGraphModel>
  </diagram>
</mxfile>
